<svg width="12" height="14" viewBox="0 0 12 14" fill="none" xmlns="http://www.w3.org/2000/svg">
<path fill-rule="evenodd" clip-rule="evenodd" d="M5.90625 0.4375C6.11341 0.4375 6.31209 0.523916 6.45858 0.677737C6.60506 0.831559 6.68736 1.04018 6.68736 1.25772V10.7608L10.0399 7.23877C10.1125 7.16251 10.1987 7.10202 10.2936 7.06075C10.3885 7.01947 10.4902 6.99823 10.5929 6.99823C10.6956 6.99823 10.7973 7.01947 10.8922 7.06075C10.9871 7.10202 11.0733 7.16251 11.1459 7.23877C11.2186 7.31503 11.2762 7.40557 11.3155 7.50521C11.3548 7.60485 11.375 7.71164 11.375 7.81949C11.375 7.92734 11.3548 8.03413 11.3155 8.13377C11.2762 8.23341 11.2186 8.32394 11.1459 8.4002L6.45928 13.3215C6.38672 13.3979 6.30052 13.4585 6.20562 13.4999C6.11073 13.5412 6.00899 13.5625 5.90625 13.5625C5.80351 13.5625 5.70177 13.5412 5.60688 13.4999C5.51198 13.4585 5.42578 13.3979 5.35322 13.3215L0.666571 8.4002C0.593946 8.32394 0.536338 8.23341 0.497034 8.13377C0.45773 8.03413 0.4375 7.92734 0.4375 7.81949C0.4375 7.71164 0.45773 7.60485 0.497034 7.50521C0.536338 7.40557 0.593946 7.31503 0.666571 7.23877C0.813242 7.08476 1.01217 6.99823 1.2196 6.99823C1.3223 6.99823 1.424 7.01947 1.51889 7.06075C1.61378 7.10202 1.7 7.16251 1.77262 7.23877L5.12514 10.7608V1.25772C5.12514 1.04018 5.20744 0.831559 5.35392 0.677737C5.50041 0.523916 5.69909 0.4375 5.90625 0.4375Z" fill="white"/>
</svg>
