<svg width="35" height="35" viewBox="0 0 35 35" fill="none" xmlns="http://www.w3.org/2000/svg">
<g clip-path="url(#clip0_0_50)">
<path fill-rule="evenodd" clip-rule="evenodd" d="M8.0893 26.4316C8.39404 26.7364 8.80737 26.9076 9.23835 26.9076C9.66932 26.9076 10.0826 26.7364 10.3874 26.4316L23.7003 13.1187L23.698 22.9845C23.698 23.1981 23.7401 23.4097 23.8218 23.6071C23.9036 23.8045 24.0234 23.9839 24.1745 24.135C24.3256 24.2861 24.505 24.4059 24.7024 24.4877C24.8998 24.5694 25.1114 24.6115 25.325 24.6115C25.5387 24.6115 25.7503 24.5694 25.9477 24.4877C26.1451 24.4059 26.3244 24.2861 26.4755 24.135C26.6266 23.9839 26.7465 23.8045 26.8282 23.6071C26.91 23.4097 26.9521 23.1981 26.9521 22.9845V9.19589C26.9523 8.98215 26.9104 8.77045 26.8288 8.57293C26.7471 8.3754 26.6273 8.19593 26.4761 8.04479C26.325 7.89365 26.1455 7.77381 25.948 7.69214C25.7505 7.61047 25.5388 7.56857 25.325 7.56884H11.5364C11.1049 7.56884 10.6911 7.74026 10.3859 8.04539C10.0808 8.35053 9.90939 8.76437 9.90939 9.19589C9.90939 9.62742 10.0808 10.0413 10.3859 10.3464C10.6911 10.6515 11.1049 10.8229 11.5364 10.8229L21.4022 10.8206L8.0893 24.1335C7.78455 24.4383 7.61335 24.8516 7.61335 25.2826C7.61335 25.7136 7.78455 26.1269 8.0893 26.4316Z" fill="black" fill-opacity="0.6"/>
</g>
<defs>
<clipPath id="clip0_0_50">
<rect width="22.88" height="26" fill="white" transform="translate(18.3848) rotate(45)"/>
</clipPath>
</defs>
</svg>
