<svg width="24" height="15" viewBox="0 0 24 15" fill="none" xmlns="http://www.w3.org/2000/svg">
<path d="M24 13.5306C24 13.2546 23.8946 12.9898 23.7071 12.7946C23.5196 12.5995 23.2652 12.4898 23 12.4898H14.3333C14.0681 12.4898 13.8138 12.5995 13.6262 12.7946C13.4387 12.9898 13.3333 13.2546 13.3333 13.5306C13.3333 13.8067 13.4387 14.0714 13.6262 14.2666C13.8138 14.4618 14.0681 14.5714 14.3333 14.5714H23C23.2652 14.5714 23.5196 14.4618 23.7071 14.2666C23.8946 14.0714 24 13.8067 24 13.5306ZM24 7.28571C24 7.00967 23.8946 6.74494 23.7071 6.54975C23.5196 6.35456 23.2652 6.2449 23 6.2449H6.33333C6.06812 6.2449 5.81376 6.35456 5.62623 6.54975C5.43869 6.74494 5.33333 7.00967 5.33333 7.28571C5.33333 7.56176 5.43869 7.82649 5.62623 8.02168C5.81376 8.21687 6.06812 8.32653 6.33333 8.32653H23C23.2652 8.32653 23.5196 8.21687 23.7071 8.02168C23.8946 7.82649 24 7.56176 24 7.28571ZM24 1.04082C24 0.764775 23.8946 0.500039 23.7071 0.304848C23.5196 0.109657 23.2652 0 23 0H1C0.734784 0 0.48043 0.109657 0.292893 0.304848C0.105357 0.500039 0 0.764775 0 1.04082C0 1.31686 0.105357 1.58159 0.292893 1.77678C0.48043 1.97198 0.734784 2.08163 1 2.08163H23C23.2652 2.08163 23.5196 1.97198 23.7071 1.77678C23.8946 1.58159 24 1.31686 24 1.04082Z" fill="black"/>
</svg>
