<svg width="14" height="14" viewBox="0 0 14 14" fill="none" xmlns="http://www.w3.org/2000/svg">
<path d="M13.3079 0.691974C13.1596 0.543675 12.9615 0.457414 12.757 0.45217C12.5525 0.446926 12.3585 0.523127 12.2176 0.66401L0.531199 12.3504C0.390316 12.4913 0.314116 12.6853 0.31936 12.8898C0.324605 13.0943 0.410865 13.2925 0.559164 13.4408C0.707464 13.5891 0.905655 13.6753 1.11014 13.6806C1.31462 13.6858 1.50864 13.6096 1.64953 13.4687L13.3359 1.78234C13.4768 1.64146 13.553 1.44743 13.5478 1.24295C13.5425 1.03846 13.4562 0.840274 13.3079 0.691974Z" fill="black"/>
<path d="M13.3859 13.3079C13.5342 13.1596 13.6205 12.9615 13.6257 12.757C13.631 12.5525 13.5548 12.3585 13.4139 12.2176L1.72749 0.531199C1.58661 0.390316 1.39258 0.314116 1.1881 0.31936C0.983616 0.324605 0.785425 0.410864 0.637125 0.559164C0.488825 0.707464 0.402566 0.905655 0.397321 1.11014C0.392077 1.31462 0.468277 1.50864 0.60916 1.64953L12.2955 13.3359C12.4364 13.4768 12.6305 13.553 12.8349 13.5477C13.0394 13.5425 13.2376 13.4562 13.3859 13.3079Z" fill="black"/>
</svg>
