<svg width="667" height="238" viewBox="0 0 667 238" fill="none" xmlns="http://www.w3.org/2000/svg">
<path d="M170.956 52.764H87.0605V127.953H129.8V87.8523H168.845C181.157 87.8523 191.798 90.2266 200.767 94.9754C209.913 99.5483 216.949 106.144 221.873 114.762C226.974 123.204 229.524 133.317 229.524 145.101C229.524 156.71 226.974 166.823 221.873 175.441C216.949 184.059 209.913 190.743 200.767 195.491C191.798 200.064 181.157 202.351 168.845 202.351H129.8H87.0605V237.439H170.956C191.006 237.439 208.682 233.657 223.984 226.095C239.285 218.356 251.245 207.627 259.863 193.908C268.482 180.014 272.791 163.745 272.791 145.101C272.791 126.282 268.482 110.013 259.863 96.2945C251.245 82.5758 239.285 71.935 223.984 64.3722C208.682 56.6334 191.006 52.764 170.956 52.764Z" fill="black"/>
<path d="M101.256 184.675H184.675V109.486H142.179V149.587H103.355C91.1132 149.587 80.5329 147.212 71.614 142.463C62.5201 137.891 55.5248 131.295 50.6282 122.677C45.5566 114.235 43.0208 104.121 43.0208 92.3374C43.0208 80.7293 45.5566 70.6161 50.6282 61.9979C55.5248 53.3798 62.5201 46.6963 71.614 41.9475C80.5329 37.3746 91.1132 35.0882 103.355 35.0882H142.179H184.675V-1.52588e-05H101.256C81.3199 -1.52588e-05 63.7443 3.78143 48.5296 11.3443C33.3149 19.0831 21.423 29.8118 12.8538 43.5305C4.28459 57.425 0 73.694 0 92.3374C0 111.157 4.28459 127.426 12.8538 141.144C21.423 154.863 33.3149 165.504 48.5296 173.067C63.7443 180.805 81.3199 184.675 101.256 184.675Z" fill="black"/>
<path d="M327.771 140V98H346.851C351.411 98 355.431 98.88 358.911 100.64C362.391 102.36 365.111 104.78 367.071 107.9C369.031 111.02 370.011 114.72 370.011 119C370.011 123.24 369.031 126.94 367.071 130.1C365.111 133.22 362.391 135.66 358.911 137.42C355.431 139.14 351.411 140 346.851 140H327.771ZM337.491 132.02H346.371C349.171 132.02 351.591 131.5 353.631 130.46C355.711 129.38 357.311 127.86 358.431 125.9C359.591 123.94 360.171 121.64 360.171 119C360.171 116.32 359.591 114.02 358.431 112.1C357.311 110.14 355.711 108.64 353.631 107.6C351.591 106.52 349.171 105.98 346.371 105.98H337.491V132.02ZM392.701 140.48C389.021 140.48 385.781 139.76 382.981 138.32C380.221 136.88 378.081 134.92 376.561 132.44C375.041 129.92 374.281 127.06 374.281 123.86C374.281 120.62 375.021 117.76 376.501 115.28C378.021 112.76 380.081 110.8 382.681 109.4C385.281 107.96 388.221 107.24 391.501 107.24C394.661 107.24 397.501 107.92 400.021 109.28C402.581 110.6 404.601 112.52 406.081 115.04C407.561 117.52 408.301 120.5 408.301 123.98C408.301 124.34 408.281 124.76 408.241 125.24C408.201 125.68 408.161 126.1 408.121 126.5H381.901V121.04H403.201L399.601 122.66C399.601 120.98 399.261 119.52 398.581 118.28C397.901 117.04 396.961 116.08 395.761 115.4C394.561 114.68 393.161 114.32 391.561 114.32C389.961 114.32 388.541 114.68 387.301 115.4C386.101 116.08 385.161 117.06 384.481 118.34C383.801 119.58 383.461 121.06 383.461 122.78V124.22C383.461 125.98 383.841 127.54 384.601 128.9C385.401 130.22 386.501 131.24 387.901 131.96C389.341 132.64 391.021 132.98 392.941 132.98C394.661 132.98 396.161 132.72 397.441 132.2C398.761 131.68 399.961 130.9 401.041 129.86L406.021 135.26C404.541 136.94 402.681 138.24 400.441 139.16C398.201 140.04 395.621 140.48 392.701 140.48ZM422.706 140L409.146 107.72H418.806L430.086 135.5H425.286L436.986 107.72H445.986L432.366 140H422.706ZM450.466 140V98H469.546C474.106 98 478.126 98.88 481.606 100.64C485.086 102.36 487.806 104.78 489.766 107.9C491.726 111.02 492.706 114.72 492.706 119C492.706 123.24 491.726 126.94 489.766 130.1C487.806 133.22 485.086 135.66 481.606 137.42C478.126 139.14 474.106 140 469.546 140H450.466ZM460.186 132.02H469.066C471.866 132.02 474.286 131.5 476.326 130.46C478.406 129.38 480.006 127.86 481.126 125.9C482.286 123.94 482.866 121.64 482.866 119C482.866 116.32 482.286 114.02 481.126 112.1C480.006 110.14 478.406 108.64 476.326 107.6C474.286 106.52 471.866 105.98 469.066 105.98H460.186V132.02ZM515.396 140.48C511.716 140.48 508.476 139.76 505.676 138.32C502.916 136.88 500.776 134.92 499.256 132.44C497.736 129.92 496.976 127.06 496.976 123.86C496.976 120.62 497.716 117.76 499.196 115.28C500.716 112.76 502.776 110.8 505.376 109.4C507.976 107.96 510.916 107.24 514.196 107.24C517.356 107.24 520.196 107.92 522.716 109.28C525.276 110.6 527.296 112.52 528.776 115.04C530.256 117.52 530.996 120.5 530.996 123.98C530.996 124.34 530.976 124.76 530.936 125.24C530.896 125.68 530.856 126.1 530.816 126.5H504.596V121.04H525.896L522.296 122.66C522.296 120.98 521.956 119.52 521.276 118.28C520.596 117.04 519.656 116.08 518.456 115.4C517.256 114.68 515.856 114.32 514.256 114.32C512.656 114.32 511.236 114.68 509.996 115.4C508.796 116.08 507.856 117.06 507.176 118.34C506.496 119.58 506.156 121.06 506.156 122.78V124.22C506.156 125.98 506.536 127.54 507.296 128.9C508.096 130.22 509.196 131.24 510.596 131.96C512.036 132.64 513.716 132.98 515.636 132.98C517.356 132.98 518.856 132.72 520.136 132.2C521.456 131.68 522.656 130.9 523.736 129.86L528.716 135.26C527.236 136.94 525.376 138.24 523.136 139.16C520.896 140.04 518.316 140.48 515.396 140.48ZM548.088 140.48C545.328 140.48 542.668 140.16 540.108 139.52C537.588 138.84 535.588 138 534.108 137L537.228 130.28C538.708 131.2 540.448 131.96 542.448 132.56C544.488 133.12 546.488 133.4 548.448 133.4C550.608 133.4 552.128 133.14 553.008 132.62C553.928 132.1 554.388 131.38 554.388 130.46C554.388 129.7 554.028 129.14 553.308 128.78C552.628 128.38 551.708 128.08 550.548 127.88C549.388 127.68 548.108 127.48 546.708 127.28C545.348 127.08 543.968 126.82 542.568 126.5C541.168 126.14 539.888 125.62 538.728 124.94C537.568 124.26 536.628 123.34 535.908 122.18C535.228 121.02 534.888 119.52 534.888 117.68C534.888 115.64 535.468 113.84 536.628 112.28C537.828 110.72 539.548 109.5 541.788 108.62C544.028 107.7 546.708 107.24 549.828 107.24C552.028 107.24 554.268 107.48 556.548 107.96C558.828 108.44 560.728 109.14 562.248 110.06L559.128 116.72C557.568 115.8 555.988 115.18 554.388 114.86C552.828 114.5 551.308 114.32 549.828 114.32C547.748 114.32 546.228 114.6 545.268 115.16C544.308 115.72 543.828 116.44 543.828 117.32C543.828 118.12 544.168 118.72 544.848 119.12C545.568 119.52 546.508 119.84 547.668 120.08C548.828 120.32 550.088 120.54 551.448 120.74C552.848 120.9 554.248 121.16 555.648 121.52C557.048 121.88 558.308 122.4 559.428 123.08C560.588 123.72 561.528 124.62 562.248 125.78C562.968 126.9 563.328 128.38 563.328 130.22C563.328 132.22 562.728 134 561.528 135.56C560.328 137.08 558.588 138.28 556.308 139.16C554.068 140.04 551.328 140.48 548.088 140.48ZM569.103 140V107.72H578.463V140H569.103ZM573.783 103.22C572.063 103.22 570.663 102.72 569.583 101.72C568.503 100.72 567.963 99.48 567.963 98C567.963 96.52 568.503 95.28 569.583 94.28C570.663 93.28 572.063 92.78 573.783 92.78C575.503 92.78 576.903 93.26 577.983 94.22C579.063 95.14 579.603 96.34 579.603 97.82C579.603 99.38 579.063 100.68 577.983 101.72C576.943 102.72 575.543 103.22 573.783 103.22ZM602.33 152.12C599.29 152.12 596.35 151.74 593.51 150.98C590.71 150.26 588.37 149.16 586.49 147.68L590.21 140.96C591.57 142.08 593.29 142.96 595.37 143.6C597.49 144.28 599.57 144.62 601.61 144.62C604.93 144.62 607.33 143.88 608.81 142.4C610.33 140.92 611.09 138.72 611.09 135.8V130.94L611.69 122.84L611.57 114.68V107.72H620.45V134.6C620.45 140.6 618.89 145.02 615.77 147.86C612.65 150.7 608.17 152.12 602.33 152.12ZM600.89 138.44C597.89 138.44 595.17 137.8 592.73 136.52C590.33 135.2 588.39 133.38 586.91 131.06C585.47 128.7 584.75 125.96 584.75 122.84C584.75 119.68 585.47 116.94 586.91 114.62C588.39 112.26 590.33 110.44 592.73 109.16C595.17 107.88 597.89 107.24 600.89 107.24C603.61 107.24 606.01 107.8 608.09 108.92C610.17 110 611.79 111.7 612.95 114.02C614.11 116.3 614.69 119.24 614.69 122.84C614.69 126.4 614.11 129.34 612.95 131.66C611.79 133.94 610.17 135.64 608.09 136.76C606.01 137.88 603.61 138.44 600.89 138.44ZM602.75 130.76C604.39 130.76 605.85 130.44 607.13 129.8C608.41 129.12 609.41 128.18 610.13 126.98C610.85 125.78 611.21 124.4 611.21 122.84C611.21 121.24 610.85 119.86 610.13 118.7C609.41 117.5 608.41 116.58 607.13 115.94C605.85 115.26 604.39 114.92 602.75 114.92C601.11 114.92 599.65 115.26 598.37 115.94C597.09 116.58 596.07 117.5 595.31 118.7C594.59 119.86 594.23 121.24 594.23 122.84C594.23 124.4 594.59 125.78 595.31 126.98C596.07 128.18 597.09 129.12 598.37 129.8C599.65 130.44 601.11 130.76 602.75 130.76ZM648.781 107.24C651.341 107.24 653.621 107.76 655.621 108.8C657.661 109.8 659.261 111.36 660.421 113.48C661.581 115.56 662.161 118.24 662.161 121.52V140H652.801V122.96C652.801 120.36 652.221 118.44 651.061 117.2C649.941 115.96 648.341 115.34 646.261 115.34C644.781 115.34 643.441 115.66 642.241 116.3C641.081 116.9 640.161 117.84 639.481 119.12C638.841 120.4 638.521 122.04 638.521 124.04V140H629.161V107.72H638.101V116.66L636.421 113.96C637.581 111.8 639.241 110.14 641.401 108.98C643.561 107.82 646.021 107.24 648.781 107.24Z" fill="black"/>
</svg>
